<?xml version="1.0" encoding="UTF-8"?>
<svg version="1.1" xmlns="http://www.w3.org/2000/svg" width="512" height="512">
<path d="M0 0 C10.42238332 7.54069786 15.19127634 17.31506241 18.546875 29.45703125 C19.83078125 29.73675781 21.1146875 30.01648437 22.4375 30.3046875 C47.56271576 35.93016528 72.44415625 44.56378216 93.58886719 59.63598633 C95.53681849 61.02476422 95.53681849 61.02476422 98.546875 62.45703125 C101.22387095 62.01033943 101.22387095 62.01033943 103.546875 60.45703125 C114.37508172 54.82977422 124.93722077 53.6418038 136.86328125 56.15625 C147.14925525 59.54675881 155.84683296 66.70708375 161.05859375 76.21484375 C165.83141489 86.69043398 166.9131164 97.37109203 163.546875 108.45703125 C162.33470043 111.14275553 161.02924628 113.70616603 159.5703125 116.265625 C158.26477454 118.65796874 158.26477454 118.65796874 158.546875 122.45703125 C159.50695639 124.63871273 159.50695639 124.63871273 160.890625 126.84375 C161.64134277 128.11375854 161.64134277 128.11375854 162.40722656 129.40942383 C162.94831055 130.31200928 163.48939453 131.21459473 164.046875 132.14453125 C174.91663781 150.79961008 184.30425335 170.50520787 187.91162109 191.98706055 C188.50449609 195.4034182 189.16917688 198.24896277 190.546875 201.45703125 C193.49394693 203.43526455 195.91196174 204.09166217 199.37890625 204.796875 C207.91562475 206.57579661 214.68129506 212.42484447 219.546875 219.45703125 C225.98323207 230.55765747 227.29470421 242.11672099 224.93359375 254.734375 C221.54723356 265.13214175 214.25321545 273.50291509 204.546875 278.45703125 C200.93007688 279.96686241 197.27892627 281.26399847 193.546875 282.45703125 C192.556875 282.78703125 191.566875 283.11703125 190.546875 283.45703125 C189.79260556 285.2024595 189.79260556 285.2024595 189.44140625 287.375 C189.18000854 288.62120117 189.18000854 288.62120117 188.91333008 289.89257812 C188.63912231 291.25479492 188.63912231 291.25479492 188.359375 292.64453125 C183.25391965 315.73282063 174.16933512 339.03566073 160.41845703 358.39794922 C159.01050514 360.38312261 159.01050514 360.38312261 157.546875 363.45703125 C158.01370641 366.20771022 158.01370641 366.20771022 159.546875 368.45703125 C159.876875 369.06804687 160.206875 369.6790625 160.546875 370.30859375 C160.876875 370.89382813 161.206875 371.4790625 161.546875 372.08203125 C166.32543992 381.6391611 166.55759564 392.36090055 163.67578125 402.53125 C159.40865022 414.06283939 151.60348563 422.18757635 140.546875 427.45703125 C131.1414813 430.98405389 121.1798912 431.27493676 111.546875 428.45703125 C108.58180189 426.9477479 105.79879813 425.3315991 103.01953125 423.50390625 C100.61415856 422.19978798 100.61415856 422.19978798 98.20703125 423 C94.71661503 424.91178451 91.31743839 426.94501064 87.921875 429.01953125 C69.46851778 440.00885601 49.3301519 449.2310122 28.02124023 452.81958008 C24.60401154 453.41481023 21.75610139 454.07883587 18.546875 455.45703125 C16.5686417 458.40410318 15.91224408 460.82211799 15.20703125 464.2890625 C13.42810964 472.825781 7.57906178 479.59145131 0.546875 484.45703125 C-10.53120337 490.88031464 -22.17492192 492.27328327 -34.765625 489.80859375 C-45.35080961 486.29022273 -53.49211317 479.02609345 -58.63671875 469.1953125 C-60.71322919 464.71522222 -62.13667958 460.22048508 -63.453125 455.45703125 C-65.34417969 455.05484375 -65.34417969 455.05484375 -67.2734375 454.64453125 C-92.25254014 449.13571254 -117.38888331 440.24623988 -138.39404297 425.32861328 C-140.37921636 423.92066139 -140.37921636 423.92066139 -143.453125 422.45703125 C-146.21290769 422.92120205 -146.21290769 422.92120205 -148.453125 424.45703125 C-158.0288664 430.0283717 -168.62227771 431.63306308 -179.5078125 429.33984375 C-189.96320363 426.20599972 -198.36377719 420.98355733 -204.203125 411.6640625 C-210.13201243 400.64716351 -212.07758916 389.60686765 -208.59375 377.4609375 C-206.07483985 370.16578618 -206.07483985 370.16578618 -203.6953125 367.453125 C-202.15907248 365.5084966 -202.15907248 365.5084966 -202.98046875 363.18359375 C-204.88295289 359.66122258 -206.92889664 356.24757621 -209.015625 352.83203125 C-220.00494976 334.37867403 -229.22710595 314.24030815 -232.81567383 292.93139648 C-233.41090398 289.51416779 -234.07492962 286.66625764 -235.453125 283.45703125 C-238.40019693 281.47879795 -240.81821174 280.82240033 -244.28515625 280.1171875 C-252.82187475 278.33826589 -259.58754506 272.48921803 -264.453125 265.45703125 C-270.87640839 254.37895288 -272.26937702 242.73523433 -269.8046875 230.14453125 C-266.28631648 219.55934664 -259.0221872 211.41804308 -249.19140625 206.2734375 C-244.71131597 204.19692706 -240.21657883 202.77347667 -235.453125 201.45703125 C-235.185 200.19632813 -234.916875 198.935625 -234.640625 197.63671875 C-229.13180629 172.65761611 -220.24233363 147.52127294 -205.32470703 126.51611328 C-203.91675514 124.53093989 -203.91675514 124.53093989 -202.453125 121.45703125 C-202.91995641 118.70635228 -202.91995641 118.70635228 -204.453125 116.45703125 C-204.783125 115.84601563 -205.113125 115.235 -205.453125 114.60546875 C-205.948125 113.72761719 -205.948125 113.72761719 -206.453125 112.83203125 C-211.23168992 103.2749014 -211.46384564 92.55316195 -208.58203125 82.3828125 C-204.63302006 71.7109172 -197.79209983 64.27960253 -188.0078125 58.61328125 C-178.53258695 54.32479996 -166.79912224 53.63712373 -156.7890625 56.5078125 C-153.06221689 58.07530712 -149.51718683 59.86868742 -145.98046875 61.82421875 C-143.37626644 62.75408614 -143.37626644 62.75408614 -140.7890625 61.25390625 C-139.81195313 60.5784375 -138.83484375 59.90296875 -137.828125 59.20703125 C-136.66869032 58.44543357 -135.50571322 57.68921017 -134.33984375 56.9375 C-133.71384277 56.53192871 -133.0878418 56.12635742 -132.44287109 55.70849609 C-111.5842258 42.58930397 -87.60917387 34.03095766 -63.453125 29.45703125 C-63.12441406 28.33167969 -63.12441406 28.33167969 -62.7890625 27.18359375 C-59.05290634 15.12461819 -54.05418334 5.44409068 -42.859375 -1.046875 C-29.53463041 -7.92479463 -12.86775606 -8.09357268 0 0 Z M-42.2265625 21.61328125 C-46.15866927 27.52396403 -46.15175777 33.57818549 -45.453125 40.45703125 C-43.67970067 47.10176039 -39.0064603 51.63071084 -33.453125 55.45703125 C-27.45425496 58.39765382 -20.5702897 58.55586913 -14.140625 56.83984375 C-8.01179639 54.1345405 -3.21359708 49.0483943 -0.28125 43.06640625 C1.62493357 37.06012973 1.61126187 29.95411567 -0.953125 24.14453125 C-4.43349758 18.2117965 -9.8887443 13.52539381 -16.453125 11.45703125 C-28.17707462 10.03094263 -34.76054861 12.7708514 -42.2265625 21.61328125 Z M15.546875 46.45703125 C15.17175781 47.25367188 14.79664063 48.0503125 14.41015625 48.87109375 C9.5136245 59.00950457 5.13276777 64.48517467 -4.453125 70.45703125 C-2.94606837 80.21958246 -0.49372238 89.7525529 1.9152832 99.32177734 C2.61616856 102.10904779 3.30937403 104.89815537 4.00195312 107.6875 C4.44485909 109.45714479 4.88820214 111.22668026 5.33203125 112.99609375 C5.53933365 113.83137604 5.74663605 114.66665833 5.96022034 115.5272522 C6.64492221 119.29737759 6.64492221 119.29737759 8.546875 122.45703125 C10.68975134 122.73122405 12.83643582 122.97582144 14.984375 123.20703125 C25.49310464 124.65798275 32.29778319 129.13890187 40.546875 135.45703125 C41.16393311 135.09577148 41.78099121 134.73451172 42.41674805 134.36230469 C45.35531375 132.64277802 48.2947758 130.92479051 51.234375 129.20703125 C52.84517944 128.2648877 52.84517944 128.2648877 54.48852539 127.30371094 C59.9009134 124.14413254 65.32313247 121.00579383 70.78125 117.92578125 C71.74329346 117.38211914 72.70533691 116.83845703 73.6965332 116.27832031 C75.53099809 115.24437549 77.36801765 114.21494805 79.20776367 113.19042969 C80.02994385 112.72668945 80.85212402 112.26294922 81.69921875 111.78515625 C82.42101318 111.38200195 83.14280762 110.97884766 83.88647461 110.56347656 C85.70828438 109.54780893 85.70828438 109.54780893 86.546875 107.45703125 C86.40765625 106.92335937 86.2684375 106.3896875 86.125 105.83984375 C83.8605885 96.50679637 84.91543787 85.25462002 88.546875 76.45703125 C65.49630068 62.14977823 42.18887449 52.07155597 15.546875 46.45703125 Z M-133.453125 76.45703125 C-133.24816406 76.99328125 -133.04320312 77.52953125 -132.83203125 78.08203125 C-130.06708489 86.12551158 -129.75615492 94.03488923 -129.453125 102.45703125 C-122.47919234 105.70913462 -115.35927346 108.39387951 -108.1171875 110.984375 C-106.935802 111.41028427 -105.7544165 111.83619354 -104.53723145 112.27500916 C-101.37041302 113.41634592 -98.20264812 114.55497221 -95.0343399 115.69216156 C-89.14094126 117.80815841 -83.24990598 119.93072298 -77.359375 122.0546875 C-76.71370701 122.28736832 -76.06803902 122.52004913 -75.40280533 122.75978088 C-67.24073991 125.70271791 -59.09757402 128.69026061 -50.984375 131.765625 C-49.74075699 132.23563179 -49.74075699 132.23563179 -48.47201538 132.71513367 C-44.74477341 134.12537804 -41.02258878 135.54704484 -37.30712891 136.98803711 C-36.02521464 137.47549109 -34.74316089 137.96257849 -33.4609375 138.44921875 C-32.38473145 138.8654248 -31.30852539 139.28163086 -30.19970703 139.71044922 C-27.38587791 140.4753105 -26.11283022 140.56698099 -23.453125 139.45703125 C-22.00626651 138.04370846 -22.00626651 138.04370846 -20.765625 136.26953125 C-17.30479327 131.96350925 -13.10777911 129.33408541 -8.453125 126.45703125 C-9.96018163 116.69448004 -12.41252762 107.1615096 -14.8215332 97.59228516 C-15.52241856 94.80501471 -16.21562403 92.01590713 -16.90820312 89.2265625 C-17.35110909 87.45691771 -17.79445214 85.68738224 -18.23828125 83.91796875 C-18.44558365 83.08268646 -18.65288605 82.24740417 -18.86647034 81.3868103 C-19.55117221 77.61668491 -19.55117221 77.61668491 -21.453125 74.45703125 C-23.59600134 74.18283845 -25.74268582 73.93824106 -27.890625 73.70703125 C-37.45758809 72.38476806 -45.94537445 68.80808444 -52.453125 61.45703125 C-55.76065977 56.70579192 -58.39831444 51.86899708 -60.453125 46.45703125 C-84.66400332 46.45703125 -113.94754504 63.17018207 -133.453125 76.45703125 Z M-187.453125 79.45703125 C-191.77430771 85.31189799 -194.11290878 91.16876426 -193.1953125 98.5234375 C-191.5615693 106.35055267 -186.95022021 111.97254973 -180.453125 116.45703125 C-174.43989694 119.38399987 -167.5808196 119.55867947 -161.140625 117.83984375 C-155.01179639 115.1345405 -150.21359708 110.0483943 -147.28125 104.06640625 C-145.33952886 97.94815284 -145.3933059 90.87009743 -148.140625 85.01953125 C-151.90263342 78.66620934 -157.38309688 73.82203882 -164.5859375 71.8828125 C-173.00904335 70.51809326 -181.41326459 73.40214631 -187.453125 79.45703125 Z M107.27734375 79.51953125 C102.06364304 85.35699299 100.85835388 90.77345955 101.171875 98.5625 C102.13937981 106.03042772 105.85289401 110.22758428 111.44921875 115.01171875 C117.43617581 119.1368102 123.49622712 119.17311267 130.546875 118.45703125 C137.26235687 116.66472359 141.5707391 111.95914364 145.546875 106.45703125 C148.5034595 101.26792375 148.81276711 96.31827603 147.984375 90.51953125 C145.96456582 83.76911637 142.30493114 78.1396938 136.234375 74.45703125 C125.51864025 69.28763157 115.79012735 71.36357092 107.27734375 79.51953125 Z M-136.453125 118.45703125 C-137.2575 119.42640625 -138.061875 120.39578125 -138.890625 121.39453125 C-141.453125 124.45703125 -141.453125 124.45703125 -143.453125 125.45703125 C-142.80754934 129.97985838 -141.05625813 133.81011632 -139.1015625 137.890625 C-138.76444244 138.60501236 -138.42732239 139.31939972 -138.07998657 140.05543518 C-137.36466469 141.56869843 -136.64669734 143.08071362 -135.92626953 144.59155273 C-134.84773103 146.85341437 -133.77660953 149.11865542 -132.70703125 151.38476562 C-128.40824234 160.46997728 -123.98990582 169.48824722 -119.453125 178.45703125 C-118.28136719 178.4828125 -117.10960937 178.50859375 -115.90234375 178.53515625 C-101.48856028 178.99134697 -91.26480155 181.17926466 -80.453125 191.45703125 C-80.123125 192.11703125 -79.793125 192.77703125 -79.453125 193.45703125 C-75.41116017 192.82127404 -72.10286519 191.52659989 -68.40234375 189.796875 C-67.23541992 189.25377686 -66.06849609 188.71067871 -64.86621094 188.15112305 C-63.62422282 187.56586006 -62.38236296 186.98032482 -61.140625 186.39453125 C-59.87673546 185.80291081 -58.61273769 185.21152152 -57.34863281 184.62036133 C-48.30668542 180.38054108 -39.34969293 175.99428089 -30.453125 171.45703125 C-30.453125 166.50703125 -30.453125 161.55703125 -30.453125 156.45703125 C-32.2930603 155.79622559 -32.2930603 155.79622559 -34.17016602 155.12207031 C-40.1191295 152.98505062 -46.06746069 150.84627424 -52.015625 148.70703125 C-53.11115692 148.31308167 -54.20668884 147.91913208 -55.3354187 147.51324463 C-68.89404972 142.63621946 -82.44535053 137.7397466 -95.984375 132.80859375 C-96.617722 132.57796738 -97.25106899 132.347341 -97.90360832 132.10972595 C-104.71689911 129.62865373 -111.52910852 127.14463778 -118.34008789 124.65722656 C-120.58739145 123.83786073 -122.83470535 123.01852329 -125.08203125 122.19921875 C-126.12133789 121.81883453 -127.16064453 121.43845032 -128.23144531 121.04653931 C-129.17286377 120.70359833 -130.11428223 120.36065735 -131.08422852 120.00732422 C-131.90826675 119.70631805 -132.73230499 119.40531189 -133.58131409 119.09518433 C-135.2812752 118.40324957 -135.2812752 118.40324957 -136.453125 118.45703125 Z M94.546875 123.45703125 C79.16505112 132.04098872 63.8278173 140.69453287 48.546875 149.45703125 C48.876875 156.71703125 49.206875 163.97703125 49.546875 171.45703125 C70.19781295 181.09134307 90.86400777 190.67191433 111.71020508 199.87744141 C125.39381947 205.92034361 138.99275271 212.12837168 152.546875 218.45703125 C153.28164063 217.69648438 154.01640625 216.9359375 154.7734375 216.15234375 C157.09118465 213.89988525 159.24032883 212.10359424 161.921875 210.33203125 C162.63085938 209.85507813 163.33984375 209.378125 164.0703125 208.88671875 C167.13919968 207.11508987 170.26981438 205.80453306 173.546875 204.45703125 C167.93235028 177.81503176 157.85412802 154.50760557 143.546875 131.45703125 C142.65162109 131.781875 142.65162109 131.781875 141.73828125 132.11328125 C130.01660428 135.87536479 117.75997122 136.3474039 106.453125 131.13671875 C102.35489403 128.76811752 98.45556633 126.12410033 94.546875 123.45703125 Z M-188.453125 131.45703125 C-202.76037802 154.50760557 -212.83860028 177.81503176 -218.453125 204.45703125 C-217.66808594 204.82054687 -216.88304687 205.1840625 -216.07421875 205.55859375 C-207.3318672 209.74205032 -201.20282769 213.20266508 -196.2578125 221.66015625 C-195.72913574 222.55895508 -195.20045898 223.45775391 -194.65576172 224.38378906 C-194.2588916 225.06795898 -193.86202148 225.75212891 -193.453125 226.45703125 C-175.3771649 223.15348681 -175.3771649 223.15348681 -157.328125 219.70703125 C-156.19117188 219.4853125 -155.05421875 219.26359375 -153.8828125 219.03515625 C-151.51816011 218.69680664 -151.51816011 218.69680664 -150.453125 217.45703125 C-150.17894378 215.64803127 -149.93433426 213.83452396 -149.703125 212.01953125 C-148.20396686 202.73797863 -144.27076804 194.99477105 -137.453125 188.45703125 C-136.793125 188.12703125 -136.133125 187.79703125 -135.453125 187.45703125 C-136.08387451 183.45663086 -137.34981183 180.20192232 -139.078125 176.546875 C-139.61606689 175.40057617 -140.15400879 174.25427734 -140.70825195 173.07324219 C-141.28987459 171.8470044 -141.87149897 170.62076743 -142.453125 169.39453125 C-143.63648626 166.87871545 -144.81609651 164.36114499 -145.99609375 161.84375 C-146.29017624 161.21775909 -146.58425873 160.59176819 -146.88725281 159.94680786 C-149.5716278 154.22610639 -152.18317538 148.47432421 -154.765625 142.70703125 C-155.14396484 141.86261475 -155.52230469 141.01819824 -155.91210938 140.14819336 C-156.76058705 138.25179744 -157.60711974 136.35453143 -158.453125 134.45703125 C-159.69707031 134.49183594 -160.94101563 134.52664062 -162.22265625 134.5625 C-171.40680642 134.73963278 -179.7235547 134.75268925 -188.453125 131.45703125 Z M-10.2265625 149.61328125 C-14.15866927 155.52396403 -14.15175777 161.57818549 -13.453125 168.45703125 C-11.67970067 175.10176039 -7.0064603 179.63071084 -1.453125 183.45703125 C4.54574504 186.39765382 11.4297103 186.55586913 17.859375 184.83984375 C23.98820361 182.1345405 28.78640292 177.0483943 31.71875 171.06640625 C33.62493357 165.06012973 33.61126187 157.95411567 31.046875 152.14453125 C27.56650242 146.2117965 22.1112557 141.52539381 15.546875 139.45703125 C3.82292538 138.03094263 -2.76054861 140.7708514 -10.2265625 149.61328125 Z M41.546875 186.45703125 C40.928125 187.32328125 40.309375 188.18953125 39.671875 189.08203125 C35.22436806 194.45981901 28.69659187 197.40205774 22.546875 200.45703125 C23.16804747 212.18397939 24.38303797 223.8187624 25.70361328 235.48510742 C26.04975505 238.5449908 26.39048635 241.60544234 26.73046875 244.66601562 C26.95020811 246.62894128 27.17024916 248.5918332 27.390625 250.5546875 C27.49169556 251.46098404 27.59276611 252.36728058 27.69689941 253.30104065 C28.19799793 257.71184931 28.76157456 262.08543584 29.546875 266.45703125 C30.36929687 266.67617188 31.19171875 266.8953125 32.0390625 267.12109375 C43.17239164 270.28367916 51.46517074 274.13899934 58.546875 283.45703125 C63.09440255 282.75411999 67.18567295 281.13735244 71.42651367 279.421875 C72.20431686 279.11122101 72.98212006 278.80056702 73.78349304 278.48049927 C76.34561829 277.4559713 78.90523426 276.42532652 81.46484375 275.39453125 C83.24638519 274.68055654 85.0280696 273.96693849 86.80989075 273.25366211 C90.5389362 271.75991013 94.26685949 270.26340453 97.99389648 268.76464844 C102.77769423 266.84093695 107.5632678 264.92169474 112.34955883 263.00419617 C116.90936085 261.17732135 121.46843891 259.34864363 126.02734375 257.51953125 C126.90026754 257.16937958 127.77319134 256.81922791 128.67256737 256.45846558 C131.13391122 255.47068091 133.59475525 254.48166265 136.05541992 253.4921875 C137.15493988 253.05110153 137.15493988 253.05110153 138.27667236 252.60110474 C141.95518053 251.12708909 141.95518053 251.12708909 145.546875 249.45703125 C145.546875 244.17703125 145.546875 238.89703125 145.546875 233.45703125 C124.74056475 223.74444959 103.91248333 214.0996352 82.90380859 204.83145142 C73.59319655 200.72349206 64.31478909 196.57533242 55.17041016 192.10498047 C50.71224606 189.93780187 46.21071703 188.14119643 41.546875 186.45703125 Z M-30.74609375 190.23828125 C-31.36534225 190.52778656 -31.98459076 190.81729187 -32.62260437 191.11557007 C-34.63141796 192.05687823 -36.6360837 193.00666342 -38.640625 193.95703125 C-40.00849631 194.60069949 -41.3764977 195.24409138 -42.74462891 195.88720703 C-52.05036572 200.27199351 -61.30479532 204.75134091 -70.453125 209.45703125 C-70.54400391 211.30167969 -70.54400391 211.30167969 -70.63671875 213.18359375 C-70.72117505 214.81641552 -70.80582047 216.44922752 -70.890625 218.08203125 C-70.92994141 218.89027344 -70.96925781 219.69851562 -71.00976562 220.53125 C-71.24108582 224.9085399 -71.62233417 229.14250406 -72.453125 233.45703125 C-71.56496094 234.00488281 -70.67679688 234.55273438 -69.76171875 235.1171875 C-58.45908594 242.12038151 -47.32995731 249.37896419 -36.20507812 256.66015625 C-32.23454146 259.25269971 -28.25063878 261.82432067 -24.265625 264.39453125 C-17.61818614 268.68513653 -11.01865807 273.04205815 -4.453125 277.45703125 C-0.8186281 275.67576792 2.73572437 273.75505259 6.296875 271.83203125 C8.38020833 270.70703125 10.46354167 269.58203125 12.546875 268.45703125 C11.92570253 256.73008311 10.71071203 245.0953001 9.39013672 233.42895508 C9.04399495 230.3690717 8.70326365 227.30862016 8.36328125 224.24804688 C8.14354189 222.28512122 7.92350084 220.3222293 7.703125 218.359375 C7.55151917 216.99993019 7.55151917 216.99993019 7.39685059 215.61302185 C6.89575207 211.20221319 6.33217544 206.82862666 5.546875 202.45703125 C4.72445312 202.23789063 3.90203125 202.01875 3.0546875 201.79296875 C-6.76345084 199.00398257 -15.25165272 195.89103355 -21.453125 187.45703125 C-25.2134536 187.45703125 -27.34026196 188.63712364 -30.74609375 190.23828125 Z M-130.2265625 205.61328125 C-134.15866927 211.52396403 -134.15175777 217.57818549 -133.453125 224.45703125 C-131.67970067 231.10176039 -127.0064603 235.63071084 -121.453125 239.45703125 C-115.45425496 242.39765382 -108.5702897 242.55586913 -102.140625 240.83984375 C-96.01179639 238.1345405 -91.21359708 233.0483943 -88.28125 227.06640625 C-86.37506643 221.06012973 -86.38873813 213.95411567 -88.953125 208.14453125 C-92.43349758 202.2117965 -97.8887443 197.52539381 -104.453125 195.45703125 C-116.17707462 194.03094263 -122.76054861 196.7708514 -130.2265625 205.61328125 Z M-250.2265625 229.61328125 C-254.15866927 235.52396403 -254.15175777 241.57818549 -253.453125 248.45703125 C-251.67970067 255.10176039 -247.0064603 259.63071084 -241.453125 263.45703125 C-235.45425496 266.39765382 -228.5702897 266.55586913 -222.140625 264.83984375 C-216.01179639 262.1345405 -211.21359708 257.0483943 -208.28125 251.06640625 C-206.37506643 245.06012973 -206.38873813 237.95411567 -208.953125 232.14453125 C-212.43349758 226.2117965 -217.8887443 221.52539381 -224.453125 219.45703125 C-236.17707462 218.03094263 -242.76054861 220.7708514 -250.2265625 229.61328125 Z M165.7734375 229.61328125 C161.84133073 235.52396403 161.84824223 241.57818549 162.546875 248.45703125 C164.32029933 255.10176039 168.9935397 259.63071084 174.546875 263.45703125 C180.54574504 266.39765382 187.4297103 266.55586913 193.859375 264.83984375 C199.98820361 262.1345405 204.78640292 257.0483943 207.71875 251.06640625 C209.62493357 245.06012973 209.61126187 237.95411567 207.046875 232.14453125 C203.56650242 226.2117965 198.1112557 221.52539381 191.546875 219.45703125 C179.82292538 218.03094263 173.23945139 220.7708514 165.7734375 229.61328125 Z M-158.36328125 236.171875 C-159.24592148 236.34707169 -160.12856171 236.52226837 -161.03794861 236.70277405 C-162.90514088 237.07418574 -164.77212484 237.44664593 -166.63891602 237.82006836 C-169.50650704 238.39271044 -172.37527067 238.95919543 -175.24414062 239.52539062 C-177.05476269 239.8863418 -178.86531212 240.24765754 -180.67578125 240.609375 C-181.53929703 240.77920395 -182.40281281 240.9490329 -183.29249573 241.12400818 C-187.19215446 241.60516764 -187.19215446 241.60516764 -190.453125 243.45703125 C-190.72730622 245.26603123 -190.97191574 247.07953854 -191.203125 248.89453125 C-192.66651865 257.95465961 -196.48879024 266.29163533 -203.453125 272.45703125 C-208.20436433 275.76456602 -213.04115917 278.40222069 -218.453125 280.45703125 C-212.83860028 307.09903074 -202.76037802 330.40645693 -188.453125 353.45703125 C-187.82148438 353.25207031 -187.18984375 353.04710937 -186.5390625 352.8359375 C-178.85844872 350.52289963 -171.4491672 349.79554982 -163.453125 349.45703125 C-159.37365723 339.91491984 -156.2137327 330.04821116 -152.9375 320.2109375 C-152.31558088 318.3490723 -151.69352871 316.48725153 -151.0713501 314.62547302 C-149.77502136 310.74391151 -148.48099151 306.86159281 -147.18847656 302.97875977 C-145.530202 297.99810716 -143.86507 293.01977713 -142.1981163 288.04202366 C-140.91507183 284.20758946 -139.63616512 280.371785 -138.3584671 276.53556633 C-137.74585481 274.69824331 -137.13182171 272.86139339 -136.51634979 271.02502632 C-135.65992517 268.46804219 -134.80921051 265.90922809 -133.95996094 263.34985352 C-133.70442444 262.59088776 -133.44888794 261.831922 -133.18560791 261.04995728 C-132.20084683 258.06561767 -131.453125 255.62197812 -131.453125 252.45703125 C-133.22484539 250.9267527 -133.22484539 250.9267527 -135.515625 249.45703125 C-140.39788107 245.87619675 -143.07146917 241.83663002 -146.04296875 236.6171875 C-146.50832031 235.90433594 -146.97367187 235.19148437 -147.453125 234.45703125 C-151.13803721 234.45703125 -154.75803051 235.45268767 -158.36328125 236.171875 Z M-87.015625 250.76953125 C-95.83346094 257.00500095 -103.77164543 257.97826323 -114.453125 258.45703125 C-118.5125397 267.98600548 -121.70878309 277.82181662 -125.00390625 287.6328125 C-125.31039785 288.54413626 -125.61688946 289.45546001 -125.93266869 290.39439964 C-127.54954425 295.20356858 -129.16259948 300.01399996 -130.77270508 304.82543945 C-132.43489561 309.78974092 -134.1110636 314.74920752 -135.79026508 319.70777607 C-137.08243346 323.53208916 -138.36398164 327.35989952 -139.64266014 331.18874168 C-140.2562357 333.01972583 -140.87386542 334.84935661 -141.49563026 336.67757607 C-142.361671 339.22714481 -143.21250826 341.78131287 -144.05981445 344.3371582 C-144.44851212 345.46482101 -144.44851212 345.46482101 -144.84506226 346.61526489 C-146.13282514 350.55684063 -146.9713258 353.50453351 -145.453125 357.45703125 C-144.00957011 358.74019115 -142.55796206 360.01977541 -141.01953125 361.1875 C-138.79189866 362.99293789 -137.15559682 365.16524226 -135.453125 367.45703125 C-127.59312128 365.07973102 -120.20627574 361.79020392 -112.73504639 358.42282104 C-108.7414315 356.62320014 -104.74127383 354.83820173 -100.7421875 353.05078125 C-99.48482285 352.48809792 -99.48482285 352.48809792 -98.20205688 351.91404724 C-89.62221618 348.07750036 -81.01779337 344.29764065 -72.40942383 340.52563477 C-69.83450038 339.39732489 -67.25996061 338.2681442 -64.68554688 337.13867188 C-61.29140784 335.64958746 -57.89721468 334.16062666 -54.50292969 332.671875 C-53.67047729 332.30674805 -52.8380249 331.94162109 -51.98034668 331.56542969 C-50.28645121 330.82251461 -48.59252181 330.07967688 -46.89855957 329.33691406 C-42.00489782 327.19100274 -37.11220629 325.04290938 -32.2210083 322.89138794 C-30.71841688 322.23091819 -29.21545073 321.57130026 -27.71209717 320.91256714 C-25.65607068 320.01156846 -23.60132105 319.1077203 -21.546875 318.203125 C-20.38865234 317.69450928 -19.23042969 317.18589355 -18.03710938 316.66186523 C-15.57550493 315.69342763 -15.57550493 315.69342763 -14.453125 314.45703125 C-14.23991443 311.72379019 -14.0760075 309.00708022 -13.953125 306.26953125 C-13.72226622 301.25476545 -13.39943426 296.40149714 -12.453125 291.45703125 C-13.34128906 290.90917969 -14.22945312 290.36132812 -15.14453125 289.796875 C-26.44716406 282.79368099 -37.57629269 275.53509831 -48.70117188 268.25390625 C-53.35576543 265.21471103 -58.02770561 262.20244947 -62.70117188 259.19238281 C-67.93327078 255.81492664 -73.09584496 252.34462787 -78.23046875 248.8203125 C-82.24528396 246.35779842 -83.53977499 248.14224557 -87.015625 250.76953125 Z M141.71069336 268.47045898 C140.91367508 268.79072052 140.1166568 269.11098206 139.29548645 269.44094849 C136.65719967 270.50254415 134.02196861 271.57151537 131.38671875 272.640625 C129.55751035 273.37852631 127.72812666 274.11599321 125.89857483 274.8530426 C121.07895669 276.79615071 116.26194062 278.74563269 111.44537354 280.69628906 C107.50819348 282.28956754 103.56921044 283.87835845 99.63011837 285.46690273 C94.94422949 287.35668521 90.25909313 289.24832909 85.57421875 291.140625 C84.67611921 291.50336454 83.77801968 291.86610409 82.852705 292.23983574 C80.3192887 293.26363667 77.78637854 294.28867813 75.25366211 295.31420898 C74.49880524 295.61918808 73.74394836 295.92416718 72.96621704 296.23838806 C69.21343588 297.75068444 69.21343588 297.75068444 65.546875 299.45703125 C65.31031238 301.99933084 65.17724487 304.47199742 65.109375 307.01953125 C64.85643153 313.11917873 64.08009411 317.83989323 61.546875 323.45703125 C61.546875 324.44703125 61.546875 325.43703125 61.546875 326.45703125 C63.52284877 328.42198482 63.52284877 328.42198482 66.171875 330.39453125 C67.17605469 331.18859375 68.18023437 331.98265625 69.21484375 332.80078125 C69.7567334 333.22875 70.29862305 333.65671875 70.85693359 334.09765625 C73.7929957 336.45940052 76.63439449 338.93020599 79.484375 341.39453125 C85.78061143 346.81977091 92.14478716 352.15713435 98.546875 357.45703125 C102.54922377 355.88291524 106.45603639 354.15386354 110.36328125 352.359375 C120.56035181 348.14555872 133.43840396 349.85910088 143.546875 353.45703125 C157.85412802 330.40645693 167.93235028 307.09903074 173.546875 280.45703125 C172.76183594 280.09351563 171.97679687 279.73 171.16796875 279.35546875 C163.71571739 275.78936074 157.20313818 272.44142602 152.546875 265.45703125 C148.53812474 265.45703125 145.36559853 266.97999752 141.71069336 268.47045898 Z M5.7734375 293.61328125 C1.84133073 299.52396403 1.84824223 305.57818549 2.546875 312.45703125 C4.32029933 319.10176039 8.9935397 323.63071084 14.546875 327.45703125 C20.54574504 330.39765382 27.4297103 330.55586913 33.859375 328.83984375 C39.98820361 326.1345405 44.78640292 321.0483943 47.71875 315.06640625 C49.62493357 309.06012973 49.61126187 301.95411567 47.046875 296.14453125 C43.56650242 290.2117965 38.1112557 285.52539381 31.546875 283.45703125 C19.82292538 282.03094263 13.23945139 284.7708514 5.7734375 293.61328125 Z M-16.17578125 333.76171875 C-16.97097672 334.11207687 -17.76617218 334.462435 -18.58546448 334.82341003 C-21.23034158 335.98960531 -23.87293648 337.16088597 -26.515625 338.33203125 C-28.37336169 339.15200444 -30.23127453 339.97157866 -32.08935547 340.79077148 C-35.95724627 342.49645913 -39.82436691 344.20387525 -43.69091797 345.91259766 C-51.64046383 349.42451409 -59.59749203 352.91935921 -67.55541992 356.41223145 C-70.07680709 357.51895277 -72.59797921 358.62616295 -75.11914062 359.73339844 C-93.21440151 367.67809109 -111.33232282 375.57080498 -129.453125 383.45703125 C-129.50718506 384.47095947 -129.56124512 385.4848877 -129.61694336 386.52954102 C-129.69613657 387.88169168 -129.77566274 389.23382287 -129.85546875 390.5859375 C-129.89007202 391.25161743 -129.92467529 391.91729736 -129.96032715 392.60314941 C-130.30227861 398.21355908 -131.4909403 403.21219793 -133.453125 408.45703125 C-110.40255068 422.76428427 -87.09512449 432.84250653 -60.453125 438.45703125 C-60.07800781 437.66039062 -59.70289063 436.86375 -59.31640625 436.04296875 C-53.93724503 424.90525963 -48.15122673 417.16899624 -36.203125 412.64453125 C-30.43843005 410.9038596 -24.43597664 410.72519616 -18.453125 410.45703125 C-15.26071615 402.78559132 -12.53136309 394.99858453 -9.90625 387.1171875 C-9.2821524 385.2513224 -9.2821524 385.2513224 -8.64544678 383.34776306 C-7.77283167 380.73731574 -6.90249519 378.12612243 -6.03369141 375.5144043 C-4.92022662 372.16816633 -3.79988662 368.82427458 -2.67775345 365.4809351 C-1.60394102 362.27773172 -0.53670637 359.07234806 0.53125 355.8671875 C0.93430359 354.66723648 1.33735718 353.46728546 1.75262451 352.23097229 C2.12010803 351.12229294 2.48759155 350.01361359 2.86621094 348.87133789 C3.19167908 347.8955629 3.51714722 346.9197879 3.85247803 345.91444397 C4.68283732 343.40147822 4.68283732 343.40147822 4.546875 340.45703125 C2.61802479 338.64626115 2.61802479 338.64626115 0.171875 336.95703125 C-2.74712587 334.84423062 -4.42846483 333.49402151 -6.453125 330.45703125 C-9.93714305 330.45703125 -13.03196634 332.36266512 -16.17578125 333.76171875 Z M41.30859375 343.046875 C36.79484664 345.3516313 32.84170804 345.66639294 27.796875 346.01953125 C26.04117187 346.14521484 26.04117187 346.14521484 24.25 346.2734375 C23.35796875 346.33402344 22.4659375 346.39460938 21.546875 346.45703125 C18.35446615 354.12847118 15.62511309 361.91547797 13 369.796875 C12.58393494 371.04078506 12.16786987 372.28469513 11.73919678 373.56629944 C10.86658167 376.17674676 9.99624519 378.78794007 9.12744141 381.3996582 C8.01397662 384.74589617 6.89363662 388.08978792 5.77150345 391.4331274 C4.69769102 394.63633078 3.63045637 397.84171444 2.5625 401.046875 C2.15944641 402.24682602 1.75639282 403.44677704 1.34112549 404.68309021 C0.97364197 405.79176956 0.60615845 406.90044891 0.22753906 408.04272461 C-0.09792908 409.0184996 -0.42339722 409.9942746 -0.75872803 410.99961853 C-1.58908732 413.51258428 -1.58908732 413.51258428 -1.453125 416.45703125 C0.35171154 418.02180238 0.35171154 418.02180238 2.671875 419.51953125 C9.30681851 424.44088305 12.63935002 430.85689619 15.546875 438.45703125 C42.18887449 432.84250653 65.49630068 422.76428427 88.546875 408.45703125 C88.3303125 407.93238281 88.11375 407.40773438 87.890625 406.8671875 C83.68129172 395.15510739 84.33182232 382.07351571 88.546875 370.45703125 C81.22283891 364.13804536 73.87797957 357.86192452 66.36328125 351.76953125 C62.42769665 348.53809424 58.55646096 345.23181607 54.69702148 341.90991211 C48.9223892 336.97651165 47.66341373 339.45797133 41.30859375 343.046875 Z M-189.0078125 376.45703125 C-193.08113659 382.09363107 -193.86024612 387.60718338 -192.890625 394.39453125 C-190.86064747 401.17892983 -187.19810495 406.78927125 -181.078125 410.45703125 C-174.89551496 413.44995303 -169.12101321 414.22597822 -162.46484375 412.23828125 C-155.17301392 409.40650268 -150.88493717 405.49740127 -147.453125 398.45703125 C-145.4373369 392.40966696 -145.33234728 385.03262217 -147.953125 379.14453125 C-151.43774638 373.20455388 -156.8876833 368.54067442 -163.453125 366.45703125 C-174.92674027 365.09602309 -181.67711677 367.72838889 -189.0078125 376.45703125 Z M104.9921875 376.359375 C100.86709605 382.34633206 100.83079358 388.40638337 101.546875 395.45703125 C103.33918266 402.17251312 108.04476261 406.48089535 113.546875 410.45703125 C118.33750536 413.21470255 123.4366937 414.03337536 128.88671875 413.0234375 C136.08322364 410.84603346 141.49448627 407.66399655 145.421875 401.14453125 C148.57712496 394.85485806 149.28782606 389.14365586 147.265625 382.33203125 C144.73297828 375.72512675 139.51844275 370.39021158 133.1875 367.30859375 C121.48769394 363.53557937 112.55148396 367.51675612 104.9921875 376.359375 Z M-42.2265625 437.61328125 C-46.15866927 443.52396403 -46.15175777 449.57818549 -45.453125 456.45703125 C-43.67970067 463.10176039 -39.0064603 467.63071084 -33.453125 471.45703125 C-27.45425496 474.39765382 -20.5702897 474.55586913 -14.140625 472.83984375 C-8.01179639 470.1345405 -3.21359708 465.0483943 -0.28125 459.06640625 C1.62493357 453.06012973 1.61126187 445.95411567 -0.953125 440.14453125 C-4.43349758 434.2117965 -9.8887443 429.52539381 -16.453125 427.45703125 C-28.17707462 426.03094263 -34.76054861 428.7708514 -42.2265625 437.61328125 Z " fill="#5470E9" transform="translate(278.453125,13.54296875)"/>
</svg>
